<svg width="114" height="64" viewBox="0 0 114 64" fill="none" xmlns="http://www.w3.org/2000/svg">
<path opacity="0.1" d="M113.907 40.8731C113.915 37.8955 113.232 34.9596 111.915 32.313C110.598 29.6664 108.686 27.3867 106.34 25.6664C106.405 25.0231 106.438 24.3769 106.44 23.7302C106.44 13.5026 98.5498 5.21332 88.8161 5.21332C85.8186 5.20904 82.8711 6.00975 80.2613 7.53734C73.3722 2.84185 64.3783 0 54.539 0C38.5296 0 24.7585 7.52394 18.649 18.3147C18.3095 18.2941 17.968 18.2827 17.6235 18.2827C7.89174 18.2827 3.61659e-05 26.572 3.61659e-05 36.7986C-0.00695727 40.4108 1.00043 43.9472 2.89944 46.9766C2.89944 56.1778 11.282 63.6367 21.6181 63.6367H96.6063C104.725 63.6367 111.306 57.7808 111.306 50.556C113.013 47.6362 113.913 44.2866 113.907 40.8731Z" fill="#FF7C33"/>
</svg>
